<svg xmlns="http://www.w3.org/2000/svg" width="32" height="32" viewBox="0 0 32 32">
    <g fill="none" fill-rule="evenodd">
        <g>
            <g>
                <g>
                    <path d="M0 0H20V20H0z" transform="translate(-28 -255) translate(28 255) translate(6 6)"/>
                    <path fill="#292A2C" d="M10.693 1.065l8.026 4.883C19.515 6.43 20 7.295 20 8.226v9.107C20 18.806 18.806 20 17.333 20H2.667C1.194 20 0 18.806 0 17.333V8.226c0-.931.485-1.795 1.28-2.278l8.027-4.883c.426-.26.96-.26 1.386 0zM12 11.15H8c-.736 0-1.333.597-1.333 1.333v2.864c0 .737.597 1.334 1.333 1.334h4c.736 0 1.333-.597 1.333-1.334v-2.864c0-.736-.597-1.333-1.333-1.333z" transform="translate(-28 -255) translate(28 255) translate(6 6)"/>
                </g>
            </g>
        </g>
    </g>
</svg>
