<svg xmlns="http://www.w3.org/2000/svg" width="32" height="32" viewBox="0 0 32 32">
    <g fill="none" fill-rule="evenodd">
        <g>
            <g>
                <g>
                    <g fill="#EA1A65">
                        <path d="M12.909.84C11.379-.44 9.1-.21 7.7 1.21l-.551.56-.551-.556C5.198-.21 2.918-.44 1.388.84-.363 2.308-.458 4.946 1.112 6.538l5.407 5.477c.348.355.914.355 1.266 0l5.408-5.477c1.564-1.592 1.475-4.23-.283-5.698z" transform="translate(-28 -423) translate(28 423) translate(6 5) translate(2.85)"/>
                    </g>
                    <path fill="#292A2C" d="M6.304 13.493c-.327-.426-.945-.514-1.38-.194-.433.32-.522.928-.196 1.354L5.9 16.187c.148.194.127.463-.046.632l-.394.386c-.206.203-.541.188-.726-.033L1.97 13.915V9.432c0-.535-.44-.967-.985-.967-.545 0-.985.432-.985.967v6.598c0 .33.114.65.323.907l3.204 4.057c.154.196.259.42.32.656.056.208.25.35.471.35h4.054c.271 0 .493-.218.493-.483v-3.384c0-.837-.277-1.65-.788-2.32l-1.773-2.32zM19.015 8.465c-.545 0-.985.432-.985.967v4.483l-2.764 3.257c-.185.218-.523.233-.726.033l-.394-.386c-.173-.17-.194-.438-.046-.632l1.172-1.534c.326-.426.237-1.034-.197-1.354-.434-.32-1.052-.232-1.379.194l-1.773 2.32c-.51.67-.788 1.483-.788 2.32v3.384c0 .265.222.483.493.483h4.054c.218 0 .415-.142.47-.35.062-.236.167-.46.32-.656l3.205-4.057c.21-.257.323-.577.323-.907V9.432c0-.535-.44-.967-.985-.967z" transform="translate(-28 -423) translate(28 423) translate(6 5)"/>
                </g>
            </g>
        </g>
    </g>
</svg>
