<svg xmlns="http://www.w3.org/2000/svg" width="32" height="32" viewBox="0 0 32 32">
    <g fill="none" fill-rule="evenodd">
        <g>
            <g>
                <path fill="#2E62EE" d="M15.159 22.918H4.84C2.306 22.918.32 20.732.554 18.2L1.68 6.081c.026-.282.262-.497.544-.497h15.554c.282 0 .518.215.544.497L19.446 18.2c.235 2.532-1.752 4.718-4.287 4.718" transform="translate(-28 -339) translate(35 342)"/>
                <path fill="#FF7F00" stroke="#FF7F00" stroke-width=".647" d="M2.223 6.121c-.005 0-.01.004-.01.01L1.088 18.25c-.098 1.056.254 2.112.967 2.896.713.785 1.728 1.234 2.786 1.234H15.16c1.058 0 2.073-.45 2.786-1.234.713-.784 1.065-1.84.967-2.896L17.787 6.13c0-.006-.005-.01-.01-.01H2.223zM15.16 23.455H4.84c-1.359 0-2.663-.578-3.578-1.585C.348 20.863-.105 19.507.02 18.15L1.145 6.031c.052-.561.516-.985 1.078-.985h15.554c.562 0 1.025.424 1.078.985l1.124 12.12c.126 1.356-.327 2.712-1.242 3.72-.915 1.006-2.22 1.584-3.578 1.584h0z" transform="translate(-28 -339) translate(35 342)"/>
                <path fill="#FF7F00" stroke="#FF7F00" stroke-width=".647" d="M14.237 8.408c-.296 0-.536-.24-.536-.537V4.786c0-2.046-1.66-3.711-3.701-3.711-2.04 0-3.701 1.665-3.701 3.711v3.085c0 .297-.24.537-.536.537-.296 0-.536-.24-.536-.537V4.786C5.227 2.147 7.368 0 10 0c2.632 0 4.773 2.147 4.773 4.786v3.085c0 .297-.24.537-.536.537" transform="translate(-28 -339) translate(35 342)"/>
                <path fill="#FFFFFE" d="M2.8 10.177L4.984 10.177 4.984 10.707 4.176 10.707 4.176 12.86 3.608 12.86 3.608 10.707 2.8 10.707zM5.34 12.86L5.905 12.86 5.905 10.177 5.34 10.177zM7.732 11.477L8.81 12.86 8.103 12.86 7.255 11.758 7.08 11.758 7.08 12.86 6.516 12.86 6.516 10.177 7.08 10.177 7.08 11.265 7.215 11.265 8.023 10.177 8.704 10.177zM9.202 10.177L9.767 10.177 9.767 12.331 11.008 12.331 11.008 12.86 9.202 12.86zM12.29 11.835h.673l-.335-.928-.339.928zm.815.427h-.965l-.237.598h-.611l1.074-2.683h.513l1.074 2.683h-.619l-.23-.598zM15.54 10.999l.065.102.124-.088c.08-.07.142-.142.142-.248 0-.113-.076-.208-.207-.208-.113 0-.208.073-.208.212 0 .065.022.131.084.23m.553 1.263l-.47-.676c-.25.187-.422.322-.422.519 0 .179.146.332.415.332.16 0 .331-.066.477-.175m-.43-2.129c.412 0 .707.26.707.621 0 .234-.102.38-.328.584l.39.562c.054-.076.098-.171.123-.259l.419.146c-.05.194-.142.373-.247.511l.407.562h-.571l-.193-.211c-.208.157-.492.255-.765.255-.651 0-.943-.369-.943-.752 0-.314.157-.522.54-.81l-.121-.183c-.087-.135-.127-.277-.127-.412 0-.347.295-.614.71-.614M4.19 14.715h1.27v1.073c-.258.303-.662.497-1.139.497-.815 0-1.394-.617-1.394-1.384 0-.77.579-1.387 1.372-1.387.445 0 .827.194 1.078.518l-.459.296c-.149-.171-.375-.277-.626-.277-.462 0-.8.387-.8.85 0 .464.33.855.837.855.233 0 .444-.066.582-.187v-.383h-.72v-.47zM5.999 13.558L7.849 13.558 7.849 14.062 6.563 14.062 6.563 14.631 7.677 14.631 7.677 15.08 6.563 15.08 6.563 15.737 7.9 15.737 7.9 16.241 5.999 16.241zM8.402 13.558L8.966 13.558 8.966 15.712 10.207 15.712 10.207 16.241 8.402 16.241zM12.642 15.215h.674l-.335-.927-.339.927zm.816.427h-.965l-.237.6h-.611l1.074-2.684h.513l1.074 2.683h-.619l-.23-.599zM14.808 13.558L15.372 13.558 15.372 15.712 16.614 15.712 16.614 16.241 14.808 16.241zM18.833 20.892c-.268-.872-1.05-1.74-1.05-1.74l-.174.144c-.02-.023-.041-.045-.064-.066l-.02-.017.259-.06c-.257-.426-.806-.565-1.232-.314-.596-.063-1.299.065-1.852.42-.286-.066-.597-.025-.868.14l.265.44-1.184-1.965c-.167-.278-.527-.367-.803-.199-.277.168-.366.528-.198.805l1.843 3.059c.034.203.094.395.181.563l-.845-.209c-.314-.078-.631.115-.708.43-.078.314.114.631.428.709 0 0 2.086 1.08 3.333 2.646l3.459-2.097s-.502-1.816-.77-2.689M16.803 19.818L16.587 19.435" transform="translate(-28 -339) translate(35 342)"/>
                <path fill="#FF7F00" stroke="#FF7F00" stroke-width=".2" d="M16.214 25.258c-1.281-1.48-3.172-2.47-3.256-2.513-.022-.011-.046-.02-.07-.026-.069-.017-.126-.06-.163-.12-.036-.06-.047-.131-.03-.2.035-.141.178-.228.319-.193l1.022.253c.023.006.047.01.07.011h.007l.01.001h.014l.013-.002c.008 0 .015 0 .023-.002l.02-.004.027-.007.021-.008.014-.006.032-.016.002-.001h0c.071-.043.125-.113.147-.2.023-.092.002-.185-.047-.258l-2.202-3.653c-.075-.125-.035-.288.089-.363.124-.075.286-.035.361.09l.92 1.524.949 1.574c.06.1.166.156.275.156.057 0 .114-.015.166-.047.152-.092.2-.29.109-.442l-.468-.777h0l-.036-.058-.246-.41c.11-.017.223-.012.334.015.22.055.406.192.523.386l.344.57c.091.153.289.202.441.11.152-.092.2-.29.109-.443l-.195-.324s0 0 0 0l-.3-.499c.266-.128.592-.034.75.224l.21.376c.06.105.169.164.28.164.054 0 .109-.013.158-.041.155-.088.21-.284.123-.44l-.216-.383-.002-.004-.002-.004-.105-.174c.121-.059.258-.073.391-.04.151.037.28.131.36.265l.007.01.01.015.013.017.006.007.002.003h.001c.051.058.742.85.978 1.616.206.672.557 1.925.701 2.445l-3.013 1.826zm3.698-1.763c-.005-.018-.506-1.831-.772-2.697-.265-.865-.974-1.698-1.1-1.841-.17-.266-.43-.454-.737-.53-.318-.078-.648-.028-.928.142l-.227.137-.016.012c-.312-.085-.656-.047-.954.134l-.226.137-.01.006c-.048-.017-.098-.032-.148-.045-.28-.07-.568-.056-.835.036l-.771-1.28c-.259-.428-.817-.566-1.245-.307-.207.126-.353.325-.411.56-.058.236-.02.48.104.688l1.81 3.002-.279-.07c-.485-.119-.977.18-1.097.666-.057.236-.02.48.105.688.118.195.3.336.517.4.25.135 2.088 1.148 3.2 2.546.064.079.157.121.252.121.057 0 .114-.015.166-.047l3.459-2.096c.123-.075.182-.223.143-.362h0z" transform="translate(-28 -339) translate(35 342)"/>
            </g>
        </g>
    </g>
</svg>
